<svg width="81" height="72" viewBox="0 0 81 72" fill="none" xmlns="http://www.w3.org/2000/svg">
<path d="M7.66791 17.0886C9.00167 17.0886 10.0829 16.0068 10.0829 14.6722C10.0829 13.3377 9.00167 12.2559 7.66791 12.2559C6.33415 12.2559 5.25293 13.3377 5.25293 14.6722C5.25293 16.0068 6.33415 17.0886 7.66791 17.0886Z" fill="#F1F3F9"/>
<path d="M73.7607 24.4646C75.0944 24.4646 76.1757 23.3827 76.1757 22.0482C76.1757 20.7137 75.0944 19.6318 73.7607 19.6318C72.4269 19.6318 71.3457 20.7137 71.3457 22.0482C71.3457 23.3827 72.4269 24.4646 73.7607 24.4646Z" fill="#EAEEF9"/>
<path d="M12.5617 8.88521C13.0882 8.88521 13.515 8.45816 13.515 7.93137C13.515 7.40459 13.0882 6.97754 12.5617 6.97754C12.0352 6.97754 11.6084 7.40459 11.6084 7.93137C11.6084 8.45816 12.0352 8.88521 12.5617 8.88521Z" fill="#F1F3F9"/>
<path d="M70.9651 14.2272C71.5267 14.2272 71.9819 13.7717 71.9819 13.2098C71.9819 12.6479 71.5267 12.1924 70.9651 12.1924C70.4035 12.1924 69.9482 12.6479 69.9482 13.2098C69.9482 13.7717 70.4035 14.2272 70.9651 14.2272Z" fill="#F1F3F9"/>
<path d="M40.2066 71.2027C59.511 71.2027 75.1603 55.5444 75.1603 36.2288C75.1603 16.9132 59.511 1.25488 40.2066 1.25488C20.9022 1.25488 5.25293 16.9132 5.25293 36.2288C5.25293 55.5444 20.9022 71.2027 40.2066 71.2027Z" fill="#F1F3F9" stroke="#D6DCE8" stroke-width="1.31977" stroke-miterlimit="10"/>
<path d="M49.9936 56.2592L19.6156 68.5319C19.1072 68.7227 18.5353 68.4683 18.3446 68.0232L0.867757 24.5919C0.677101 24.0832 0.931309 23.5109 1.37617 23.3201L31.7541 11.0475C32.2625 10.8567 32.8345 11.1111 33.0251 11.5562L50.502 54.9239C50.7562 55.4962 50.502 56.0685 49.9936 56.2592Z" fill="white" stroke="#D6DCE8" stroke-width="1.31977" stroke-miterlimit="10"/>
<path d="M36.5838 30.569L11.1629 40.8069C10.9087 40.934 10.6545 40.8069 10.5274 40.5525C10.4003 40.2982 10.5274 40.0438 10.7816 39.9166L36.1389 29.6788C36.3931 29.5516 36.6473 29.6788 36.7744 29.9332C36.9015 30.1875 36.7744 30.4419 36.5838 30.569Z" fill="#F1F3F9"/>
<path d="M37.5368 33.0485L12.1795 43.2864C11.9253 43.4135 11.6711 43.2864 11.544 43.032C11.4169 42.7776 11.544 42.5233 11.7982 42.3961L37.1555 32.1583C37.4097 32.0311 37.6639 32.1583 37.791 32.4126C37.9182 32.667 37.791 32.9214 37.5368 33.0485Z" fill="#F1F3F9"/>
<path d="M38.5544 35.4654L13.1971 45.7668C12.9429 45.894 12.6887 45.7668 12.5616 45.5125C12.4345 45.2581 12.5616 45.0038 12.8158 44.8766L38.1731 34.6388C38.4273 34.5116 38.6815 34.6388 38.8086 34.8931C38.9357 35.0839 38.8086 35.4018 38.5544 35.4654Z" fill="#F1F3F9"/>
<path d="M23.7475 44.3679L14.2147 48.2468C13.9605 48.374 13.7063 48.2468 13.5792 47.9924C13.4521 47.7381 13.5792 47.4837 13.8334 47.3566L23.3662 43.4776C23.6204 43.3504 23.8746 43.4776 24.0017 43.732C24.0653 43.9863 24.0017 44.2407 23.7475 44.3679Z" fill="#F1F3F9"/>
<path d="M41.8584 41.7612L42.6846 43.8596C42.8117 44.2412 42.6846 44.6863 42.3033 44.8135L17.2002 54.9877C16.8189 55.1149 16.374 54.9877 16.2469 54.6062L15.4207 52.4442C15.2936 52.0626 15.4207 51.6175 15.802 51.4903L40.9051 41.3797C41.2864 41.2525 41.6678 41.4433 41.8584 41.7612Z" fill="#F1F3F9"/>
<path d="M43.8292 46.5932L44.6554 48.6917C44.7825 49.0732 44.6554 49.5183 44.2741 49.6455L19.1709 59.8197C18.7896 59.9469 18.3448 59.8197 18.2177 59.4382L17.3279 57.2762C17.2008 56.8947 17.3279 56.4495 17.7093 56.3224L42.8124 46.2117C43.1937 46.0845 43.6385 46.2753 43.8292 46.5932Z" fill="#F1F3F9"/>
<path d="M45.7354 51.4253L46.5615 53.5237C46.6886 53.9053 46.5615 54.3504 46.1802 54.4776L21.0771 64.6518C20.6958 64.779 20.2509 64.6518 20.1238 64.2703L19.2977 62.1718C19.1706 61.7903 19.2977 61.3452 19.679 61.218L44.7821 51.1074C45.1634 50.9166 45.6083 51.1074 45.7354 51.4253Z" fill="#F1F3F9"/>
<path d="M18.4077 50.4727L19.8058 53.97L17.2002 54.9875C16.8189 55.1146 16.374 54.9875 16.2469 54.6059L15.4207 52.4439C15.2936 52.0624 15.4207 51.6173 15.802 51.4901L18.4077 50.4727Z" fill="#AAB2C5"/>
<path d="M17.7722 56.3219L25.3984 53.2061L26.7966 56.7034L19.1703 59.8193C18.789 59.9465 18.3441 59.8193 18.217 59.4378L17.3273 57.2757C17.2002 56.9578 17.3909 56.5127 17.7722 56.3219Z" fill="#D6DCE8"/>
<path d="M19.679 61.1551L20.7594 60.71L22.1575 64.2074L21.0771 64.6525C20.6958 64.7797 20.2509 64.6525 20.1238 64.2709L19.2977 62.1725C19.1706 61.791 19.2977 61.3458 19.679 61.1551Z" fill="#D6DCE8"/>
<path d="M20.0603 28.4067C19.9968 24.9094 17.1369 22.0479 13.578 22.0479H13.5145C9.95555 22.0479 7.0957 24.9729 7.0957 28.5339C7.15926 32.0949 10.0827 34.9564 13.6416 34.9564C15.6117 34.9564 17.3276 34.0662 18.5351 32.7308C19.5519 31.5862 20.1239 30.1236 20.1239 28.4703C20.0603 28.4703 20.0603 28.4703 20.0603 28.4067ZM13.6416 32.9216C11.2266 32.9216 9.25648 30.9503 9.25648 28.5339C9.25648 26.1175 11.2266 24.1463 13.6416 24.1463H13.7051C16.1201 24.1463 18.0267 26.054 18.0902 28.4067C18.0902 28.4703 18.0902 28.4703 18.0902 28.5339C18.0902 29.6149 17.7089 30.6324 17.0098 31.3954C16.1201 32.3493 14.9762 32.9216 13.6416 32.9216Z" fill="#F1F3F9"/>
<path d="M20.0614 28.4067H17.9642C17.9642 26.054 15.9941 24.1463 13.6427 24.1463H13.5791V22.0479H13.6427C17.138 22.0479 19.9979 24.9094 20.0614 28.4067Z" fill="#D6DCE8"/>
<path d="M62.3866 66.1164L31.6909 54.6704C31.1825 54.4796 30.9283 53.9073 31.119 53.3986L47.3883 9.58583C47.579 9.07712 48.1509 8.82277 48.6594 9.01353L79.355 20.396C79.8635 20.5867 80.1177 21.159 79.927 21.6677L63.6577 65.5441C63.467 66.0528 62.895 66.3072 62.3866 66.1164Z" fill="white" stroke="#D6DCE8" stroke-width="1.31977" stroke-miterlimit="10"/>
<path opacity="0.4" d="M58.3194 28.7256L55.8408 27.7717L57.8745 22.1123L60.353 23.0026L58.3194 28.7256Z" fill="#E6EDF5"/>
<path d="M61.6876 29.934L59.1455 28.9801L62.2596 20.332L64.7381 21.2859L61.6876 29.934Z" fill="#AAB2C5"/>
<path d="M68.3604 32.2873L65.8818 31.3971L69.9492 20.0146L72.4913 20.9049L68.3604 32.2873Z" fill="#D6DCE8"/>
<path opacity="0.4" d="M71.5371 33.4319L69.0586 32.5416L70.139 29.4258L72.6811 30.3796L71.5371 33.4319Z" fill="#E6EDF5"/>
<path d="M69.7581 38.0728L44.083 28.5345C43.8288 28.4709 43.7017 28.153 43.7652 27.8986C43.8288 27.6442 44.1465 27.5171 44.4007 27.5807L70.0758 37.119C70.33 37.1826 70.4571 37.5005 70.3936 37.7549C70.2665 38.0092 70.0123 38.1364 69.7581 38.0728Z" fill="#F1F3F9"/>
<path d="M68.8049 40.5533L43.1299 31.015C42.8756 30.9514 42.7485 30.6334 42.8121 30.3791C42.8756 30.1247 43.1934 29.9975 43.4476 30.0611L69.1227 39.5995C69.3769 39.6631 69.504 39.981 69.4404 40.2354C69.3769 40.4897 69.0591 40.6805 68.8049 40.5533Z" fill="#F1F3F9"/>
<path d="M67.9153 43.0328L42.2402 33.4945C41.986 33.4309 41.8589 33.1129 41.9224 32.8586C41.986 32.6042 42.3038 32.477 42.558 32.5406L68.233 42.079C68.4872 42.1425 68.6144 42.4605 68.5508 42.7148C68.4237 43.0328 68.1695 43.16 67.9153 43.0328Z" fill="#F1F3F9"/>
<path d="M51.0105 39.5994L41.3506 36.0384C41.0963 35.9748 40.9692 35.6569 41.0328 35.4025C41.0963 35.1482 41.4141 35.021 41.6683 35.0846L51.3282 38.6455C51.5825 38.7091 51.7096 39.0271 51.646 39.2814C51.5189 39.5358 51.2647 39.663 51.0105 39.5994Z" fill="#DDDDDD"/>
<path d="M66.1365 49.9004L65.3738 52.0625C65.2467 52.444 64.8019 52.6348 64.4206 52.5076L58.9551 50.4727L38.9997 43.0328C38.6184 42.9057 38.4277 42.4605 38.5548 42.079L39.3175 39.917C39.4446 39.5354 39.8894 39.3447 40.2707 39.4719L60.099 46.8482L65.6281 48.883C66.0729 49.1374 66.2636 49.5189 66.1365 49.9004Z" fill="#F1F3F9"/>
<path d="M64.2927 54.7968L63.53 56.9588C63.4029 57.3404 62.9581 57.5311 62.5767 57.404L60.7337 56.7045L37.2194 47.9928C36.8381 47.8656 36.6475 47.4205 36.7746 47.039L37.5372 44.8769C37.6643 44.4954 38.1092 44.3046 38.4905 44.4318L62.0683 53.2071L63.8478 53.9066C64.2291 54.0337 64.4198 54.4153 64.2927 54.7968Z" fill="#F1F3F9"/>
<path d="M62.5133 59.6933L61.7507 61.8553C61.6236 62.2369 61.1788 62.4276 60.7974 62.3004L51.3917 58.8031L35.4401 52.8893C35.0588 52.7621 34.8682 52.317 34.9953 51.9354L35.7579 49.7734C35.885 49.3919 36.3299 49.2011 36.7112 49.3283L53.0441 55.3692L62.0685 58.7395C62.4498 58.8666 62.6405 59.3118 62.5133 59.6933Z" fill="#F1F3F9"/>
<path d="M36.7112 49.3289L53.0441 55.3698L51.3917 58.7401L35.4401 52.8263C35.0588 52.6991 34.8682 52.254 34.9953 51.8725L35.7579 49.7104C35.885 49.3925 36.3299 49.2017 36.7112 49.3289Z" fill="#D6DCE8"/>
<path d="M38.5548 42.1425L39.3175 39.9805C39.4446 39.5989 39.8894 39.4082 40.2707 39.5353L60.099 46.9116L58.828 50.409L38.9997 43.0327C38.6184 42.9055 38.4277 42.524 38.5548 42.1425Z" fill="#D6DCE8"/>
<path d="M62.0683 53.2071L60.7337 56.7045L37.2194 47.9928C36.8381 47.8656 36.6475 47.4205 36.7746 47.039L37.5372 44.8769C37.6643 44.4954 38.1092 44.3046 38.4905 44.4318L62.0683 53.2071Z" fill="#D6DCE8"/>
<path d="M45.0372 41.3159L43.7661 44.8133L38.9997 43.0328C38.6184 42.9057 38.4277 42.4605 38.5548 42.079L39.3175 39.917C39.4446 39.5354 39.8894 39.3447 40.2707 39.4719L45.0372 41.3159Z" fill="#DDDDDD"/>
<path d="M38.4905 44.4324L43.2569 46.2129L41.9858 49.7103L37.2194 47.9298C36.8381 47.8026 36.6475 47.3575 36.7746 46.976L37.5372 44.8139C37.7278 44.496 38.1092 44.3052 38.4905 44.4324Z" fill="#DDDDDD"/>
<path d="M36.7112 49.3289L41.4776 51.1094L40.2065 54.6068L35.4401 52.8263C35.0588 52.6991 34.8682 52.254 34.9953 51.8725L35.7579 49.7104C35.885 49.3925 36.3299 49.2017 36.7112 49.3289Z" fill="#DDDDDD"/>
<path d="M56.9219 55.4972H24.1925C23.6841 55.4972 23.2393 55.0521 23.2393 54.5434V7.74192C23.2393 7.23321 23.6841 6.78809 24.1925 6.78809H56.9219C57.4303 6.78809 57.8752 7.23321 57.8752 7.74192V54.4798C57.9387 55.0521 57.4939 55.4972 56.9219 55.4972Z" fill="white" stroke="#D6DCE8" stroke-width="1.31977" stroke-miterlimit="10"/>
<path d="M54.0634 24.7834H26.736C26.4817 24.7834 26.2275 24.5928 26.2275 24.275C26.2275 24.0208 26.4182 23.7666 26.736 23.7666H54.0634C54.3176 23.7666 54.5718 23.9573 54.5718 24.275C54.5718 24.5292 54.3176 24.7834 54.0634 24.7834Z" fill="#F1F3F9"/>
<path d="M54.0624 27.3899H26.735C26.4808 27.3899 26.2266 27.1992 26.2266 26.8815C26.2266 26.6273 26.4172 26.373 26.735 26.373H54.0624C54.3166 26.373 54.5708 26.5637 54.5708 26.8815C54.5708 27.1992 54.3166 27.3899 54.0624 27.3899Z" fill="#F1F3F9"/>
<path d="M54.0624 30.0608H26.735C26.4808 30.0608 26.2266 29.8701 26.2266 29.5524C26.2266 29.2982 26.4172 29.0439 26.735 29.0439H54.0624C54.3166 29.0439 54.5708 29.2346 54.5708 29.5524C54.5708 29.8701 54.3166 30.0608 54.0624 30.0608Z" fill="#F1F3F9"/>
<path d="M53.9979 40.0432H44.7828C44.5286 40.0432 44.2744 39.8525 44.2744 39.5348C44.2744 39.2806 44.4651 39.0264 44.7828 39.0264H53.9979C54.2521 39.0264 54.5063 39.217 54.5063 39.5348C54.4428 39.789 54.2521 40.0432 53.9979 40.0432Z" fill="#F1F3F9"/>
<path d="M39.1267 42.7798C39.0632 39.2824 36.2033 36.4209 32.6444 36.4209H32.5809C29.022 36.4209 26.1621 39.346 26.1621 42.907C26.1621 46.468 29.0855 49.393 32.6444 49.393C34.6145 49.393 36.3305 48.5028 37.5379 47.1674C38.5548 46.0228 39.1267 44.5603 39.1267 42.907C39.1267 42.8434 39.1267 42.7798 39.1267 42.7798ZM32.6444 47.231C30.2294 47.231 28.2593 45.2598 28.2593 42.8434C28.2593 40.427 30.2294 38.4557 32.6444 38.4557H32.708C35.123 38.4557 37.0295 40.3634 37.0931 42.7162C37.0931 42.7798 37.0931 42.7798 37.0931 42.8434C37.0931 43.9244 36.7118 44.9418 36.0127 45.7049C35.123 46.6587 33.979 47.231 32.6444 47.231Z" fill="#F1F3F9"/>
<path d="M39.1279 42.7798H37.0307C36.9671 40.427 35.0606 38.5193 32.6456 38.5193H32.582V36.4209H32.6456C36.2045 36.4209 39.0644 39.2188 39.1279 42.7798Z" fill="#D6DCE8"/>
<path d="M39.1268 42.8429C39.1268 44.4962 38.5549 45.9587 37.538 47.1033L35.9492 45.768C36.6483 45.0049 37.0296 43.9875 37.0296 42.9065C37.0296 42.8429 37.0296 42.8429 37.0296 42.7793H39.1268V42.8429Z" fill="#AAB2C5"/>
<path d="M42.5594 40.2359C42.9455 40.2359 43.2585 39.9227 43.2585 39.5364C43.2585 39.1501 42.9455 38.8369 42.5594 38.8369C42.1733 38.8369 41.8604 39.1501 41.8604 39.5364C41.8604 39.9227 42.1733 40.2359 42.5594 40.2359Z" fill="#F1F3F9"/>
<path d="M53.9979 42.969H44.7828C44.5286 42.969 44.2744 42.7783 44.2744 42.4606C44.2744 42.2064 44.4651 41.9521 44.7828 41.9521H53.9979C54.2521 41.9521 54.5063 42.1428 54.5063 42.4606C54.4428 42.7148 54.2521 42.969 53.9979 42.969Z" fill="#F1F3F9"/>
<path d="M42.5594 43.1607C42.9455 43.1607 43.2585 42.8475 43.2585 42.4612C43.2585 42.0749 42.9455 41.7617 42.5594 41.7617C42.1733 41.7617 41.8604 42.0749 41.8604 42.4612C41.8604 42.8475 42.1733 43.1607 42.5594 43.1607Z" fill="#D6DCE8"/>
<path d="M53.9979 45.8938H44.7828C44.5286 45.8938 44.2744 45.7031 44.2744 45.3854C44.2744 45.1312 44.4651 44.877 44.7828 44.877H53.9979C54.2521 44.877 54.5063 45.0676 54.5063 45.3854C54.4428 45.6396 54.2521 45.8938 53.9979 45.8938Z" fill="#F1F3F9"/>
<path d="M42.5594 46.0865C42.9455 46.0865 43.2585 45.7733 43.2585 45.387C43.2585 45.0007 42.9455 44.6875 42.5594 44.6875C42.1733 44.6875 41.8604 45.0007 41.8604 45.387C41.8604 45.7733 42.1733 46.0865 42.5594 46.0865Z" fill="#AAB2C5"/>
<path d="M26.415 21.2857H54.5051V9.90332L50.0564 12.1289L47.705 13.7822L43.5106 13.7187L39.8245 15.6263L36.6469 16.0714L35.503 17.3432L32.1983 19.4417L28.9571 20.014L26.415 21.2857Z" fill="#D6DCE8"/>
<path d="M26.415 21.2858H54.5051V12.6377L50.0564 14.291L47.705 15.5628L43.5106 15.4992L39.8245 16.9617L36.6469 17.3433L35.503 18.2335L32.1983 19.8868L28.9571 20.332L26.415 21.2858Z" fill="#F1F3F9"/>
<path d="M26.415 21.286H54.5051V16.3896L50.0564 17.3435L47.705 18.043H43.5106L39.8245 18.806L36.6469 19.0604L35.503 19.5691L32.1983 20.4593L28.9571 20.7137L26.415 21.286Z" fill="#AAB2C5"/>
</svg>
