<svg width="20" height="23" viewBox="0 0 20 23" fill="none" xmlns="http://www.w3.org/2000/svg">
<path d="M18.8428 17.6447C18.5101 18.4133 18.1163 19.1208 17.66 19.7713C17.0381 20.658 16.5288 21.2719 16.1364 21.6127C15.528 22.1722 14.8762 22.4587 14.1782 22.475C13.6771 22.475 13.0728 22.3324 12.3693 22.0432C11.6636 21.7553 11.015 21.6127 10.422 21.6127C9.80003 21.6127 9.13299 21.7553 8.4195 22.0432C7.70493 22.3324 7.12928 22.4832 6.68916 22.4981C6.01981 22.5266 5.35264 22.2319 4.68668 21.6127C4.26164 21.242 3.72999 20.6064 3.09309 19.7061C2.40976 18.7446 1.84796 17.6297 1.40784 16.3587C0.936484 14.9857 0.700195 13.6563 0.700195 12.3692C0.700195 10.8948 1.01878 9.62321 1.65689 8.5576C2.1584 7.70166 2.82557 7.02647 3.66059 6.53081C4.49562 6.03514 5.39786 5.78256 6.36949 5.7664C6.90114 5.7664 7.59833 5.93085 8.46472 6.25405C9.32867 6.57834 9.88341 6.74279 10.1266 6.74279C10.3085 6.74279 10.9247 6.5505 11.9694 6.16714C12.9573 5.81162 13.7911 5.66441 14.4742 5.7224C16.3251 5.87178 17.7157 6.60142 18.6405 7.91595C16.9851 8.91896 16.1662 10.3238 16.1825 12.126C16.1975 13.5297 16.7067 14.6979 17.7076 15.6254C18.1611 16.0558 18.6676 16.3885 19.2312 16.6248C19.109 16.9793 18.98 17.3188 18.8428 17.6447ZM14.5978 0.940125C14.5978 2.04038 14.1958 3.06768 13.3946 4.01854C12.4277 5.14892 11.2582 5.80211 9.99001 5.69904C9.97385 5.56705 9.96448 5.42812 9.96448 5.28214C9.96448 4.2259 10.4243 3.09552 11.2408 2.17127C11.6485 1.70331 12.167 1.31421 12.7957 1.00381C13.4231 0.69805 14.0166 0.528957 14.5747 0.5C14.591 0.647086 14.5978 0.794182 14.5978 0.940111V0.940125Z" fill="black"/>
</svg>
