<svg width="20" height="20" viewBox="0 0 20 20" fill="none" xmlns="http://www.w3.org/2000/svg">
<path d="M13.3334 1.875H6.66675C4.65175 1.875 3.54175 2.985 3.54175 5V17.5C3.54175 17.7233 3.66093 17.9291 3.85343 18.04C3.9501 18.0966 4.05841 18.125 4.16675 18.125C4.27341 18.125 4.38097 18.0975 4.47681 18.0425L10.0001 14.8859L15.5234 18.0417C15.7167 18.1525 15.9551 18.1516 16.1467 18.0391C16.3392 17.9275 16.4584 17.7217 16.4584 17.4992V4.99919C16.4584 2.98502 15.3484 1.875 13.3334 1.875ZM15.2084 16.4225L10.3101 13.6242C10.1185 13.5142 9.88169 13.5142 9.69002 13.6242L4.79175 16.4233V5C4.79175 3.68583 5.35258 3.125 6.66675 3.125H13.3334C14.6476 3.125 15.2084 3.68583 15.2084 5V16.4225ZM13.1251 6.66667C13.1251 7.01167 12.8451 7.29167 12.5001 7.29167H7.50008C7.15508 7.29167 6.87508 7.01167 6.87508 6.66667C6.87508 6.32167 7.15508 6.04167 7.50008 6.04167H12.5001C12.8451 6.04167 13.1251 6.32167 13.1251 6.66667Z" fill="#14151A"/>
</svg>
