<svg width="14" height="14" viewBox="0 0 14 14" fill="none" xmlns="http://www.w3.org/2000/svg">
<path d="M0.333374 7.33366H13.6667V13.3337C13.6667 13.5105 13.5965 13.68 13.4714 13.8051C13.3464 13.9301 13.1769 14.0003 13 14.0003H1.00004C0.82323 14.0003 0.65366 13.9301 0.528636 13.8051C0.403612 13.68 0.333374 13.5105 0.333374 13.3337V7.33366ZM10.3334 2.00033H13C13.1769 2.00033 13.3464 2.07056 13.4714 2.19559C13.5965 2.32061 13.6667 2.49018 13.6667 2.66699V6.00033H0.333374V2.66699C0.333374 2.49018 0.403612 2.32061 0.528636 2.19559C0.65366 2.07056 0.82323 2.00033 1.00004 2.00033H3.66671V0.666992H5.00004V2.00033H9.00004V0.666992H10.3334V2.00033Z" fill="#0F1324" fill-opacity="0.6"/>
</svg>
