<svg width="20" height="20" viewBox="0 0 20 20" fill="none" xmlns="http://www.w3.org/2000/svg">
<path d="M1.25 17.0827V13.7493H2.08333V16.2493H4.58333V17.0827H1.25ZM15.4167 17.0827V16.2493H17.9167V13.7493H18.75V17.0827H15.4167ZM3.33333 14.9993V4.99935H5V14.9993H3.33333ZM5.83333 14.9993V4.99935H6.66667V14.9993H5.83333ZM8.33333 14.9993V4.99935H10V14.9993H8.33333ZM10.8333 14.9993V4.99935H13.3333V14.9993H10.8333ZM14.1667 14.9993V4.99935H15V14.9993H14.1667ZM15.8333 14.9993V4.99935H16.6667V14.9993H15.8333ZM1.25 6.24935V2.91602H4.58333V3.74935H2.08333V6.24935H1.25ZM17.9167 6.24935V3.74935H15.4167V2.91602H18.75V6.24935H17.9167Z" fill="black"/>
</svg>
