<svg width="21" height="18" viewBox="0 0 21 18" fill="none" xmlns="http://www.w3.org/2000/svg">
<path d="M16.5 17.25H4.5C2.082 17.25 0.75 15.918 0.75 13.5V4.5C0.75 2.082 2.082 0.75 4.5 0.75H16.5C18.918 0.75 20.25 2.082 20.25 4.5V13.5C20.25 15.918 18.918 17.25 16.5 17.25ZM4.5 2.25C2.923 2.25 2.25 2.923 2.25 4.5V13.5C2.25 15.077 2.923 15.75 4.5 15.75H16.5C18.077 15.75 18.75 15.077 18.75 13.5V4.5C18.75 2.923 18.077 2.25 16.5 2.25H4.5ZM11.5291 9.679L16.4409 6.10699C16.7759 5.86399 16.85 5.39401 16.606 5.05901C16.363 4.72501 15.8951 4.649 15.5581 4.894L10.646 8.466C10.558 8.53 10.441 8.53 10.353 8.466L5.44092 4.894C5.10292 4.649 4.63607 4.72601 4.39307 5.05901C4.14907 5.39401 4.22311 5.86299 4.55811 6.10699L9.46997 9.67999C9.77797 9.90399 10.139 10.015 10.499 10.015C10.859 10.015 11.2221 9.903 11.5291 9.679Z" fill="#25314C"/>
</svg>
