<svg width="20" height="21" viewBox="0 0 20 21" fill="none" xmlns="http://www.w3.org/2000/svg">
<path d="M17.4752 1.33301H15.0252C14.3002 1.33301 13.7668 1.63301 13.5252 2.16634C13.3918 2.40801 13.3335 2.69134 13.3335 3.02467V5.47467C13.3335 6.53301 13.9668 7.16634 15.0252 7.16634H17.4752C17.8085 7.16634 18.0918 7.10801 18.3335 6.97467C18.8668 6.73301 19.1668 6.19967 19.1668 5.47467V3.02467C19.1668 1.96634 18.5335 1.33301 17.4752 1.33301ZM18.2585 4.60801C18.1752 4.69134 18.0502 4.74967 17.9168 4.75801H16.7418V5.18301L16.7502 5.91634C16.7418 6.05801 16.6918 6.17467 16.5918 6.27467C16.5085 6.35801 16.3835 6.41634 16.2502 6.41634C15.9752 6.41634 15.7502 6.19134 15.7502 5.91634V4.74967L14.5835 4.75801C14.3085 4.75801 14.0835 4.52467 14.0835 4.24967C14.0835 3.97467 14.3085 3.74967 14.5835 3.74967L15.3168 3.75801H15.7502V2.59134C15.7502 2.31634 15.9752 2.08301 16.2502 2.08301C16.5252 2.08301 16.7502 2.31634 16.7502 2.59134L16.7418 3.18301V3.74967H17.9168C18.1918 3.74967 18.4168 3.97467 18.4168 4.24967C18.4085 4.39134 18.3502 4.50801 18.2585 4.60801Z" fill="#331203"/>
<path d="M7.49994 9.15026C8.5953 9.15026 9.48327 8.26229 9.48327 7.16693C9.48327 6.07156 8.5953 5.18359 7.49994 5.18359C6.40457 5.18359 5.5166 6.07156 5.5166 7.16693C5.5166 8.26229 6.40457 9.15026 7.49994 9.15026Z" fill="#141414"/>
<path d="M17.4748 7.16699H17.0832V11.0087L16.9748 10.917C16.3248 10.3587 15.2748 10.3587 14.6248 10.917L11.1582 13.892C10.5082 14.4503 9.45817 14.4503 8.80817 13.892L8.52484 13.6587C7.93317 13.142 6.9915 13.092 6.32484 13.542L3.20817 15.6337C3.02484 15.167 2.9165 14.6253 2.9165 13.992V7.00866C2.9165 4.65866 4.15817 3.41699 6.50817 3.41699H13.3332V3.02533C13.3332 2.69199 13.3915 2.40866 13.5248 2.16699H6.50817C3.47484 2.16699 1.6665 3.97533 1.6665 7.00866V13.992C1.6665 14.9003 1.82484 15.692 2.13317 16.3587C2.84984 17.942 4.38317 18.8337 6.50817 18.8337H13.4915C16.5248 18.8337 18.3332 17.0253 18.3332 13.992V6.97533C18.0915 7.10866 17.8082 7.16699 17.4748 7.16699Z" fill="#0B0C0E"/>
</svg>
