<svg width="20" height="20" viewBox="0 0 20 20" fill="none" xmlns="http://www.w3.org/2000/svg">
<path d="M14.2109 18.1253H5.79006C4.4809 18.1253 3.36006 17.1903 3.12506 15.9028L1.9126 9.25027C1.76427 8.43277 2.07009 7.59699 2.71175 7.06949L8.28009 2.49195C9.27759 1.67195 10.7251 1.67195 11.7226 2.49195L17.2909 7.06949C17.9326 7.59699 18.2384 8.43277 18.0901 9.25027L16.8776 15.9028C16.6409 17.1903 15.52 18.1253 14.2109 18.1253ZM10.0001 3.12611C9.67006 3.12611 9.34168 3.23609 9.07335 3.45692L3.50511 8.03445C3.21261 8.27445 3.07341 8.65451 3.14175 9.02617L4.35421 15.6778C4.48004 16.3711 5.08425 16.8745 5.78925 16.8745H14.2101C14.9151 16.8745 15.5184 16.3711 15.6451 15.6778L16.8576 9.02526C16.9251 8.65359 16.7859 8.27445 16.4942 8.03445L10.9259 3.45692C10.6584 3.23692 10.3301 3.12611 10.0001 3.12611ZM16.2608 15.7903H16.2692H16.2608ZM12.2917 14.167C12.2917 13.822 12.0117 13.542 11.6667 13.542H8.3334C7.9884 13.542 7.7084 13.822 7.7084 14.167C7.7084 14.512 7.9884 14.792 8.3334 14.792H11.6667C12.0117 14.792 12.2917 14.512 12.2917 14.167Z" fill="#25314C"/>
</svg>
