<svg width="20" height="20" viewBox="0 0 20 20" fill="none" xmlns="http://www.w3.org/2000/svg">
<path d="M17.7391 5.73471C17.7382 5.73305 17.7391 5.7314 17.7382 5.72973C17.7366 5.72556 17.7324 5.72306 17.7307 5.71889C17.4082 5.13306 16.9058 4.64972 16.2708 4.36722L11.2708 2.14473C10.4633 1.78639 9.53909 1.78639 8.73159 2.14473L3.73159 4.36722C3.09575 4.64972 2.59403 5.13306 2.27153 5.71889C2.26986 5.72306 2.26577 5.72556 2.2641 5.72973C2.26327 5.7314 2.26402 5.73305 2.26318 5.73471C2.01902 6.18388 1.87744 6.69055 1.87744 7.22222V12.7781C1.87744 14.0114 2.60572 15.1322 3.73322 15.6339L8.73322 17.8564C9.13488 18.0347 9.56571 18.1231 9.99654 18.1247C9.99904 18.1247 10.0008 18.1256 10.0033 18.1256C10.0058 18.1256 10.0074 18.1247 10.0099 18.1247C10.4407 18.1239 10.8715 18.0347 11.2732 17.8564L16.2732 15.6339C17.4007 15.133 18.1291 14.0122 18.1291 12.7781V7.22222C18.1249 6.69055 17.9832 6.18305 17.7391 5.73471ZM9.23828 3.28639C9.47995 3.17889 9.74073 3.12472 9.9999 3.12472C10.2591 3.12472 10.5198 3.17805 10.7615 3.28555L15.7615 5.50804C15.9032 5.57138 16.0274 5.6589 16.1465 5.7514L13.869 6.76389L7.81993 3.9164L9.23828 3.28639ZM6.31073 4.58723L12.3599 7.43472L10.7666 8.14306C10.2783 8.35556 9.71903 8.35555 9.23737 8.14471L3.85325 5.7514C3.97242 5.6589 4.09661 5.57054 4.23828 5.50804L6.31073 4.58723ZM4.23828 14.4906C3.56161 14.1897 3.1249 13.5172 3.1249 12.7772V7.22138C3.1249 7.08388 3.15485 6.95223 3.18319 6.82223L8.73322 9.28889C8.94072 9.37889 9.15573 9.44471 9.3749 9.48804V16.7564C9.3299 16.7406 9.28245 16.7314 9.23828 16.7122L4.23828 14.4906ZM16.8749 12.7772C16.8749 13.5172 16.4382 14.1897 15.7615 14.4906L10.7615 16.7131C10.7173 16.7331 10.6699 16.7414 10.6249 16.7572V9.48804C10.8449 9.44388 11.0616 9.37805 11.2699 9.28721L13.2324 8.41472V9.90807C13.2324 10.2531 13.5124 10.5331 13.8574 10.5331C14.2024 10.5331 14.4824 10.2531 14.4824 9.90807V7.85973L16.8157 6.82305C16.8449 6.95388 16.8741 7.08472 16.8741 7.22222V12.7772H16.8749Z" fill="#14151A"/>
</svg>
