<svg width="20" height="20" viewBox="0 0 20 20" fill="none" xmlns="http://www.w3.org/2000/svg">
<path d="M9.37508 9.72839V14.1667C9.37508 14.5117 9.65508 14.7917 10.0001 14.7917C10.3451 14.7917 10.6251 14.5117 10.6251 14.1667V9.72839C12.5101 9.42589 13.9584 7.80167 13.9584 5.83333C13.9584 3.65083 12.1826 1.875 10.0001 1.875C7.81758 1.875 6.04175 3.65083 6.04175 5.83333C6.04175 7.80167 7.49008 9.42673 9.37508 9.72839ZM10.0001 3.125C11.4934 3.125 12.7084 4.34 12.7084 5.83333C12.7084 7.32667 11.4934 8.54167 10.0001 8.54167C8.50675 8.54167 7.29175 7.32667 7.29175 5.83333C7.29175 4.34 8.50675 3.125 10.0001 3.125ZM16.4584 15C16.4584 16.7817 13.6817 18.125 10.0001 18.125C6.31841 18.125 3.54175 16.7817 3.54175 15C3.54175 13.8675 4.61758 12.9042 6.49175 12.3584C6.82342 12.2634 7.17008 12.4517 7.26675 12.7834C7.36342 13.1151 7.17259 13.4617 6.84175 13.5583C5.42592 13.9708 4.79175 14.58 4.79175 15C4.79175 15.7642 6.82091 16.875 10.0001 16.875C13.1792 16.875 15.2084 15.7642 15.2084 15C15.2084 14.58 14.5742 13.9708 13.1584 13.5583C12.8276 13.4617 12.6367 13.1151 12.7334 12.7834C12.8301 12.4517 13.1784 12.2634 13.5084 12.3584C15.3826 12.9042 16.4584 13.8675 16.4584 15Z" fill="#14151A"/>
</svg>
