<svg width="20" height="20" viewBox="0 0 20 20" fill="none" xmlns="http://www.w3.org/2000/svg">
<path d="M16.7709 9.37533H14.6409C14.7401 9.10283 14.7917 8.78949 14.7917 8.43783V3.22949C14.7917 1.83949 13.9942 1.04199 12.6042 1.04199H7.39592C6.00592 1.04199 5.20842 1.83949 5.20842 3.22949V8.43783C5.20842 8.78949 5.26011 9.10283 5.35927 9.37533H3.22925C1.83925 9.37533 1.04175 10.1728 1.04175 11.5628V16.7712C1.04175 18.1612 1.83925 18.9587 3.22925 18.9587H8.43758C9.10342 18.9587 9.62842 18.7712 10.0001 18.4278C10.3717 18.7712 10.8967 18.9587 11.5626 18.9587H16.7709C18.1609 18.9587 18.9584 18.1612 18.9584 16.7712V11.5628C18.9584 10.1728 18.1609 9.37533 16.7709 9.37533ZM13.5417 10.6253H14.7917V12.1662L14.5134 11.9803C14.3034 11.8403 14.0301 11.8403 13.8201 11.9803L13.5417 12.1662V10.6253ZM9.37508 2.29199H10.6251V3.83282L10.3468 3.647C10.1368 3.507 9.8634 3.507 9.6534 3.647L9.37508 3.83282V2.29199ZM6.45842 3.22949C6.45842 2.53699 6.70341 2.29199 7.39592 2.29199H8.12508V5.00033C8.12508 5.23116 8.25175 5.44283 8.45508 5.55117C8.65674 5.6595 8.90593 5.64782 9.09676 5.52032L10.0001 4.91783L10.9034 5.52032C11.0084 5.59032 11.1292 5.62533 11.2501 5.62533C11.3509 5.62533 11.4526 5.60117 11.5451 5.55117C11.7484 5.442 11.8751 5.23033 11.8751 5.00033V2.29199H12.6042C13.2967 2.29199 13.5417 2.53699 13.5417 3.22949V8.43783C13.5417 9.13033 13.2967 9.37533 12.6042 9.37533H11.5626H8.43758H7.39592C6.70341 9.37533 6.45842 9.13033 6.45842 8.43783V3.22949ZM5.20842 10.6253H6.45842V12.1662L6.18009 11.9803C5.97009 11.8403 5.69674 11.8403 5.48674 11.9803L5.20842 12.1662V10.6253ZM8.43758 17.7087H3.22925C2.53675 17.7087 2.29175 17.4637 2.29175 16.7712V11.5628C2.29175 10.8703 2.53675 10.6253 3.22925 10.6253H3.95841V13.3337C3.95841 13.5645 4.08508 13.7762 4.28841 13.8845C4.49008 13.9937 4.73843 13.9812 4.93009 13.8537L5.83342 13.2512L6.73674 13.8537C6.84174 13.9237 6.96258 13.9587 7.08342 13.9587C7.18425 13.9587 7.28592 13.9345 7.37842 13.8845C7.58175 13.7753 7.70842 13.5637 7.70842 13.3337V10.6253H8.43758C9.13008 10.6253 9.37508 10.8703 9.37508 11.5628V16.7712C9.37508 17.4637 9.13008 17.7087 8.43758 17.7087ZM17.7084 16.7712C17.7084 17.4637 17.4634 17.7087 16.7709 17.7087H11.5626C10.8701 17.7087 10.6251 17.4637 10.6251 16.7712V11.5628C10.6251 10.8703 10.8701 10.6253 11.5626 10.6253H12.2917V13.3337C12.2917 13.5645 12.4184 13.7762 12.6217 13.8845C12.8234 13.9937 13.0718 13.9812 13.2634 13.8537L14.1667 13.2512L15.0701 13.8537C15.1751 13.9237 15.2959 13.9587 15.4167 13.9587C15.5176 13.9587 15.6193 13.9345 15.7118 13.8845C15.9151 13.7753 16.0417 13.5637 16.0417 13.3337V10.6253H16.7709C17.4634 10.6253 17.7084 10.8703 17.7084 11.5628V16.7712Z" fill="#14151A"/>
</svg>
