<svg width="20" height="20" viewBox="0 0 20 20" fill="none" xmlns="http://www.w3.org/2000/svg">
<path d="M8.97321 12.0831V14.5831C8.97321 14.9281 8.69321 15.2081 8.34821 15.2081C8.00321 15.2081 7.72321 14.9281 7.72321 14.5831V12.0831C7.72321 11.7381 8.00321 11.4581 8.34821 11.4581C8.69321 11.4581 8.97321 11.7381 8.97321 12.0831ZM11.6815 11.4581C11.3365 11.4581 11.0565 11.7381 11.0565 12.0831V14.5831C11.0565 14.9281 11.3365 15.2081 11.6815 15.2081C12.0265 15.2081 12.3065 14.9281 12.3065 14.5831V12.0831C12.3065 11.7381 12.0265 11.4581 11.6815 11.4581ZM16.8558 9.53976L16.2791 15.3106C16.0899 17.2039 15.0732 18.1248 13.1699 18.1248H6.86159C4.95826 18.1248 3.94079 17.2048 3.75246 15.3106L3.17741 9.55725C2.40991 9.18642 1.87573 8.40726 1.87573 7.49976C1.87573 6.23559 2.90323 5.20809 4.1674 5.20809H5.96488L7.79909 2.17643C7.97743 1.88143 8.35995 1.78642 8.65745 1.96559C8.95245 2.14392 9.04739 2.52893 8.86823 2.82393L7.42576 5.20893H12.5516L11.1308 2.82059C10.9541 2.52392 11.0516 2.14059 11.3483 1.96392C11.645 1.78642 12.0282 1.88559 12.2049 2.18142L14.0066 5.20976H15.8333C17.0974 5.20976 18.1249 6.23726 18.1249 7.50143C18.1249 8.39393 17.605 9.16226 16.8558 9.53976ZM3.12492 7.49976C3.12492 8.07393 3.59242 8.54143 4.16659 8.54143H15.8333C16.4074 8.54143 16.8749 8.07393 16.8749 7.49976C16.8749 6.92559 16.4074 6.45809 15.8333 6.45809H4.16659C3.59242 6.45809 3.12492 6.92559 3.12492 7.49976ZM15.5749 9.79143H4.45579L4.99493 15.1864C5.10493 16.2814 5.43411 16.8748 6.86078 16.8748H13.1691C14.5882 16.8748 14.9274 16.2556 15.0349 15.1864L15.5749 9.79143Z" fill="#14151A"/>
</svg>
