<svg width="20" height="20" viewBox="0 0 20 20" fill="none" xmlns="http://www.w3.org/2000/svg">
<path d="M10.4167 1.875H9.58333C8.40917 1.875 7.70833 2.57583 7.70833 3.75V16.25C7.70833 17.4242 8.40917 18.125 9.58333 18.125H10.4167C11.5908 18.125 12.2917 17.4242 12.2917 16.25V3.75C12.2917 2.57583 11.5908 1.875 10.4167 1.875ZM11.0417 16.25C11.0417 16.7408 10.9075 16.875 10.4167 16.875H9.58333C9.0925 16.875 8.95833 16.7408 8.95833 16.25V3.75C8.95833 3.25917 9.0925 3.125 9.58333 3.125H10.4167C10.9075 3.125 11.0417 3.25917 11.0417 3.75V16.25ZM16.25 6.04167H15.4167C14.2425 6.04167 13.5417 6.7425 13.5417 7.91667V16.25C13.5417 17.4242 14.2425 18.125 15.4167 18.125H16.25C17.4242 18.125 18.125 17.4242 18.125 16.25V7.91667C18.125 6.7425 17.4242 6.04167 16.25 6.04167ZM16.875 16.25C16.875 16.7408 16.7408 16.875 16.25 16.875H15.4167C14.9258 16.875 14.7917 16.7408 14.7917 16.25V7.91667C14.7917 7.42583 14.9258 7.29167 15.4167 7.29167H16.25C16.7408 7.29167 16.875 7.42583 16.875 7.91667V16.25ZM4.58333 9.375H3.75C2.57583 9.375 1.875 10.0758 1.875 11.25V16.25C1.875 17.4242 2.57583 18.125 3.75 18.125H4.58333C5.7575 18.125 6.45833 17.4242 6.45833 16.25V11.25C6.45833 10.0758 5.7575 9.375 4.58333 9.375ZM5.20833 16.25C5.20833 16.7408 5.07417 16.875 4.58333 16.875H3.75C3.25917 16.875 3.125 16.7408 3.125 16.25V11.25C3.125 10.7592 3.25917 10.625 3.75 10.625H4.58333C5.07417 10.625 5.20833 10.7592 5.20833 11.25V16.25Z" fill="#14151A"/>
</svg>
