<svg width="20" height="20" viewBox="0 0 20 20" fill="none" xmlns="http://www.w3.org/2000/svg">
<path d="M17.9543 6.55931L17.0884 3.9993C16.6809 2.79597 16.1768 1.87598 13.7501 1.87598H6.25011C3.82344 1.87598 3.31927 2.79597 2.9126 3.9993L2.04509 6.56013C1.66092 7.6968 1.94677 8.9068 2.70844 9.70347V15.0001C2.70844 17.0151 3.81844 18.1251 5.83344 18.1251H14.1668C16.1818 18.1251 17.2918 17.0151 17.2918 15.0001V9.70264C18.0534 8.90597 18.3385 7.69597 17.9543 6.55931ZM3.22927 6.96014L4.09679 4.39931C4.38345 3.55098 4.52761 3.12514 6.25011 3.12514H13.7501C15.4726 3.12514 15.6167 3.55098 15.9042 4.39931L16.7701 6.9593C17.0568 7.8043 16.7534 8.71264 16.0509 9.11847C15.0284 9.70847 13.4809 9.12013 13.1267 8.1243C13.0384 7.87513 12.8018 7.70847 12.5376 7.70847C12.5368 7.70847 12.5359 7.70847 12.5351 7.70847C12.2701 7.7093 12.0335 7.87764 11.9468 8.12847C11.7002 8.8393 10.8634 9.37514 10.0001 9.37514C9.13677 9.37514 8.30006 8.8393 8.05339 8.12847C7.96672 7.87764 7.73011 7.7093 7.46511 7.70847C7.22761 7.7368 6.96181 7.8743 6.87348 8.1243C6.62014 8.8368 5.77931 9.37514 4.91598 9.37514C4.57348 9.37514 4.23928 9.28681 3.94928 9.11847C3.24678 8.71347 2.94344 7.80514 3.22927 6.96014ZM11.0668 16.8751H8.98346V14.5835C8.98346 14.0093 9.45096 13.5418 10.0251 13.5418C10.5993 13.5418 11.0668 14.0093 11.0668 14.5835V16.8751ZM14.1668 16.8751H12.3168V14.5835C12.3168 13.3193 11.2893 12.2918 10.0251 12.2918C8.76096 12.2918 7.73346 13.3193 7.73346 14.5835V16.8751H5.83344C4.51927 16.8751 3.95844 16.3143 3.95844 15.0001V10.4618C5.18344 10.8218 6.63015 10.4176 7.45931 9.51097C8.07765 10.1901 9.0201 10.6243 10.0001 10.6243C10.9801 10.6243 11.9226 10.1901 12.5409 9.51097C13.1626 10.1901 14.1059 10.6243 15.0842 10.6243C15.4117 10.6243 15.7334 10.5685 16.0418 10.4718V15.0001C16.0418 16.3143 15.4809 16.8751 14.1668 16.8751Z" fill="#14151A"/>
</svg>
