<svg width="20" height="20" viewBox="0 0 20 20" fill="none" xmlns="http://www.w3.org/2000/svg">
<path d="M9.16675 14.3747H4.16675C2.85258 14.3747 2.29175 13.8138 2.29175 12.4997V8.12467H16.0417V8.33301C16.0417 8.67801 16.3217 8.95801 16.6667 8.95801C17.0117 8.95801 17.2917 8.67801 17.2917 8.33301V5.83301C17.2917 3.81801 16.1817 2.70801 14.1667 2.70801H4.16675C2.15175 2.70801 1.04175 3.81801 1.04175 5.83301V12.4997C1.04175 14.5147 2.15175 15.6247 4.16675 15.6247H9.16675C9.51175 15.6247 9.79175 15.3447 9.79175 14.9997C9.79175 14.6547 9.51175 14.3747 9.16675 14.3747ZM4.16675 3.95801H14.1667C15.4809 3.95801 16.0417 4.51884 16.0417 5.83301V6.87467H2.29175V5.83301C2.29175 4.51884 2.85258 3.95801 4.16675 3.95801ZM7.50008 11.0413C7.84508 11.0413 8.12508 11.3213 8.12508 11.6663C8.12508 12.0113 7.84508 12.2913 7.50008 12.2913H5.00008C4.65508 12.2913 4.37508 12.0113 4.37508 11.6663C4.37508 11.3213 4.65508 11.0413 5.00008 11.0413H7.50008ZM15.0001 10.208C12.8176 10.208 11.0417 11.9838 11.0417 14.1663C11.0417 16.3488 12.8176 18.1247 15.0001 18.1247C17.1826 18.1247 18.9584 16.3488 18.9584 14.1663C18.9584 11.9838 17.1826 10.208 15.0001 10.208ZM15.0001 16.8747C13.5067 16.8747 12.2917 15.6597 12.2917 14.1663C12.2917 12.673 13.5067 11.458 15.0001 11.458C16.4934 11.458 17.7084 12.673 17.7084 14.1663C17.7084 15.6597 16.4934 16.8747 15.0001 16.8747ZM16.4834 13.0297C16.7276 13.273 16.7276 13.6697 16.4834 13.9139L15.0943 15.303C14.9768 15.4205 14.8184 15.4863 14.6526 15.4863C14.4867 15.4863 14.3276 15.4205 14.2109 15.303L13.5167 14.6088C13.2726 14.3647 13.2726 13.9688 13.5167 13.7247C13.7609 13.4805 14.1568 13.4805 14.4009 13.7247L14.6534 13.9772L15.6001 13.0297C15.8442 12.7855 16.2392 12.7855 16.4834 13.0297Z" fill="#14151A"/>
</svg>
