<svg width="20" height="20" viewBox="0 0 20 20" fill="none" xmlns="http://www.w3.org/2000/svg">
<path d="M10.0001 1.04199C5.06008 1.04199 1.04175 5.06116 1.04175 10.0003C1.04175 14.9395 5.06008 18.9587 10.0001 18.9587C14.9401 18.9587 18.9584 14.9395 18.9584 10.0003C18.9584 5.06116 14.9401 1.04199 10.0001 1.04199ZM15.8693 14.9853L13.4592 12.5753C13.9984 11.8537 14.3293 10.9678 14.3293 10.0003C14.3293 9.03283 13.9984 8.14697 13.4592 7.4253L15.8693 5.01533C17.0134 6.36033 17.7084 8.09949 17.7084 10.0003C17.7084 11.9012 17.0134 13.6403 15.8693 14.9853ZM6.92177 10.0003C6.92177 8.30283 8.30258 6.92202 10.0001 6.92202C11.6976 6.92202 13.0784 8.30283 13.0784 10.0003C13.0784 11.6978 11.6976 13.0786 10.0001 13.0786C8.30258 13.0786 6.92177 11.6978 6.92177 10.0003ZM14.9851 4.132L12.5751 6.54197C11.8534 6.00281 10.9676 5.67283 10.0001 5.67283C9.03258 5.67283 8.14673 6.00364 7.42506 6.54197L5.01509 4.132C6.36092 2.987 8.09925 2.29199 10.0001 2.29199C11.9009 2.29199 13.6401 2.987 14.9851 4.132ZM4.13089 5.01533L6.54091 7.4253C6.00175 8.14697 5.67091 9.03283 5.67091 10.0003C5.67091 10.9678 6.00175 11.8537 6.54091 12.5753L4.13089 14.9853C2.98672 13.6403 2.29175 11.9012 2.29175 10.0003C2.29175 8.09949 2.98672 6.36033 4.13089 5.01533ZM5.01509 15.8687L7.42506 13.4587C8.14673 13.9978 9.03258 14.3278 10.0001 14.3278C10.9676 14.3278 11.8534 13.997 12.5751 13.4587L14.9851 15.8687C13.6392 17.0137 11.9009 17.7087 10.0001 17.7087C8.09925 17.7087 6.36009 17.0137 5.01509 15.8687Z" fill="#14151A"/>
</svg>
