<svg width="26" height="34" viewBox="0 0 26 34" fill="none" xmlns="http://www.w3.org/2000/svg">
<path d="M13.015 14.9167C9.10831 14.9167 5.93164 11.7383 5.93164 7.83333C5.93164 3.92833 9.10831 0.75 13.015 0.75C16.9216 0.75 20.0983 3.92833 20.0983 7.83333C20.0983 11.7383 16.9216 14.9167 13.015 14.9167ZM13.015 3.25C10.4866 3.25 8.43164 5.305 8.43164 7.83333C8.43164 10.3617 10.4866 12.4167 13.015 12.4167C15.5433 12.4167 17.5983 10.3617 17.5983 7.83333C17.5983 5.305 15.5416 3.25 13.015 3.25ZM19.6615 33.25H6.33834C2.305 33.25 0.083252 31.0417 0.083252 27.0317C0.083252 22.5967 2.59325 17.4167 9.66659 17.4167H16.3333C23.4066 17.4167 25.9166 22.5951 25.9166 27.0317C25.9166 31.0417 23.6948 33.25 19.6615 33.25ZM9.66659 19.9167C3.09492 19.9167 2.58325 25.3617 2.58325 27.0317C2.58325 29.6384 3.70667 30.75 6.33834 30.75H19.6615C22.2932 30.75 23.4166 29.6384 23.4166 27.0317C23.4166 25.3634 22.9049 19.9167 16.3333 19.9167H9.66659Z" fill="#14151A"/>
</svg>
