<svg width="30" height="28" viewBox="0 0 30 28" fill="none" xmlns="http://www.w3.org/2000/svg">
<path d="M2.69333 27.3332C1.92556 27.3332 1.285 27.0765 0.771667 26.5632C0.258333 26.0498 0.00111111 25.4087 0 24.6398V8.35984C0 7.59206 0.257222 6.95151 0.771667 6.43817C1.28611 5.92484 1.92611 5.66762 2.69167 5.66651H10V3.35817C10 2.59151 10.2572 1.95095 10.7717 1.43651C11.2861 0.922063 11.9267 0.665396 12.6933 0.666507H17.3083C18.075 0.666507 18.7156 0.923174 19.23 1.43651C19.7444 1.94984 20.0011 2.5904 20 3.35817V5.66651H27.3083C28.075 5.66651 28.715 5.92373 29.2283 6.43817C29.7417 6.95262 29.9989 7.59318 30 8.35984V24.6415C30 25.4082 29.7428 26.0487 29.2283 26.5632C28.7139 27.0776 28.0739 27.3343 27.3083 27.3332H2.69333ZM11.6667 5.66651H18.3333V3.35817C18.3333 3.10262 18.2267 2.86762 18.0133 2.65317C17.8 2.43873 17.565 2.33206 17.3083 2.33317H12.6917C12.4361 2.33317 12.2011 2.43984 11.9867 2.65317C11.7722 2.86651 11.6656 3.10151 11.6667 3.35817V5.66651ZM28.3333 18.1665H18.3333V20.6665H11.6667V18.1665H1.66667V24.6415C1.66667 24.8971 1.77333 25.1321 1.98667 25.3465C2.2 25.561 2.435 25.6676 2.69167 25.6665H27.3083C27.5639 25.6665 27.7989 25.5598 28.0133 25.3465C28.2278 25.1332 28.3344 24.8976 28.3333 24.6398V18.1665ZM13.3333 18.9998H16.6667V15.6665H13.3333V18.9998ZM1.66667 16.4998H11.6667V13.9998H18.3333V16.4998H28.3333V8.35984C28.3333 8.10318 28.2267 7.86762 28.0133 7.65318C27.8 7.43873 27.565 7.33206 27.3083 7.33318H2.69167C2.43611 7.33318 2.20111 7.43984 1.98667 7.65318C1.77222 7.86651 1.66556 8.10206 1.66667 8.35984V16.4998Z" fill="#14151A"/>
</svg>
