<svg width="21" height="20" viewBox="0 0 21 20" fill="none" xmlns="http://www.w3.org/2000/svg">
<path d="M12.7751 1.66699H8.2251V5.30033H12.7751V1.66699Z" fill="#331203"/>
<path d="M14.0249 1.66699V5.30033H18.7249C18.2999 3.00866 16.6082 1.67533 14.0249 1.66699Z" fill="#141414"/>
<path d="M2.1665 6.5498V13.4915C2.1665 16.5248 3.97484 18.3331 7.00817 18.3331H13.9915C17.0248 18.3331 18.8332 16.5248 18.8332 13.4915V6.5498H2.1665ZM12.5332 13.4831L10.7998 14.4831C10.4332 14.6915 10.0748 14.7998 9.7415 14.7998C9.4915 14.7998 9.2665 14.7415 9.05817 14.6248C8.57484 14.3498 8.30817 13.7831 8.30817 13.0498V11.0498C8.30817 10.3165 8.57484 9.7498 9.05817 9.4748C9.5415 9.19147 10.1582 9.24147 10.7998 9.61647L12.5332 10.6165C13.1748 10.9831 13.5248 11.4998 13.5248 12.0581C13.5248 12.6165 13.1665 13.1081 12.5332 13.4831Z" fill="#0B0C0E"/>
<path d="M6.9749 1.66699C4.39157 1.67533 2.6999 3.00866 2.2749 5.30033H6.9749V1.66699Z" fill="#141414"/>
</svg>
